<svg xmlns="http://www.w3.org/2000/svg" width="112" height="112" viewBox="0 0 112 112">
  <g id="Group_280" data-name="Group 280" transform="translate(-7247 445)">
    <g id="Group_279" data-name="Group 279" transform="translate(7272 -438)">
      <path id="Path_54" data-name="Path 54" d="M3909.13-202.893a38.968,38.968,0,0,0,5.656-.046,11.666,11.666,0,0,0,9.2-6.9c.076-.16.167-.313.314-.589a9.057,9.057,0,0,0,6.6,3.721,8.87,8.87,0,0,0,7.135-2.884c0,2.212.067,4.224-.012,6.23a28.919,28.919,0,0,1-7.864,19.2,27.063,27.063,0,0,1-36.913,2.344c-7.315-6.076-10.438-14.057-10.02-23.431.265-5.926,5.453-11.33,11.333-12.19a19.768,19.768,0,0,1,2.881-.206q10.945,0,21.889,0c2.609,0,3.716,1.231,3.459,3.824a9.756,9.756,0,0,1-9.724,8.769q-5.365,0-10.73,0c-.25,0-.5,0-.751.005-.736.027-1.281.347-1.3,1.129-.014.8.518,1.07,1.274,1.11a11.615,11.615,0,0,1,5.33,1.439,11.392,11.392,0,0,1,6.046,10.066c.037,1.179.016,2.36,0,3.541-.007.786.294,1.4,1.119,1.408s1.122-.612,1.12-1.4c-.01-2.854.2-5.728-.929-8.463A16.8,16.8,0,0,0,3909.13-202.893Z" transform="translate(-3876.822 274.132)" fill="#f6da99"/>
      <path id="Path_55" data-name="Path 55" d="M3859.685-419.011c0-2.1.026-4.2-.006-6.305a133.887,133.887,0,0,0-1.6-15.988c-.8-5.837-1.665-11.664-2.476-17.5-.689-4.952-1.325-9.91-2.015-14.862a6.05,6.05,0,0,1,5.031-7.04,6.071,6.071,0,0,1,6.938,5.332q2.085,14.31,4.139,28.624c.487,3.357.995,6.711,1.48,10.068.1.683.4,1.179,1.126,1.205.749.027,1.049-.492,1.149-1.164q.935-6.358,1.873-12.715,1.568-10.758,3.126-21.517c.232-1.59.44-3.184.726-4.765a5.958,5.958,0,0,1,7.113-4.887,6.055,6.055,0,0,1,4.8,6.833q-2,14.214-4,28.428a2.233,2.233,0,0,1-.589,1.221,8.9,8.9,0,0,0-2.247,6.2c.031,3.362-.043,6.727.036,10.087.026,1.092-.341,1.284-1.328,1.263-2.932-.064-5.867-.015-8.8-.026a15.922,15.922,0,0,0-13.928,7.242,3.313,3.313,0,0,1-.263.3Z" transform="translate(-3853.524 480.777)" fill="#f6da99"/>
      <path id="Path_56" data-name="Path 56" d="M4078.143-269.564a41.854,41.854,0,0,1,.047-5.783c.491-3.478,3.518-5.618,7.138-5.337a6.489,6.489,0,0,1,5.731,6.343c.069,3.182.083,6.368,0,9.549a6.472,6.472,0,0,1-6.742,6.336,6.474,6.474,0,0,1-6.232-6.494c-.023-1.538,0-3.076,0-4.614Z" transform="translate(-4029.854 323.659)" fill="#f6da99"/>
      <path id="Path_57" data-name="Path 57" d="M4020.054-293.88c-2.814-1.211-5.7-.525-8.525-.682-1.212-.067-2.43-.032-3.644,0-.562.014-.842-.1-.838-.755.028-3.823-.056-7.649.047-11.47a6.377,6.377,0,0,1,6.395-5.971,6.326,6.326,0,0,1,6.526,5.952C4020.181-302.53,4020.054-298.241,4020.054-293.88Z" transform="translate(-3974.083 348.83)" fill="#f6da99"/>
    </g>
    <rect id="Rectangle_224" data-name="Rectangle 224" width="112" height="112" transform="translate(7247 -445)" fill="none"/>
  </g>
</svg>
