<svg xmlns="http://www.w3.org/2000/svg" width="112" height="112" viewBox="0 0 112 112">
  <g id="Group_281" data-name="Group 281" transform="translate(-7097 436)">
    <path id="Path_68" data-name="Path 68" d="M3295.349-399.33q0,11.8,0,23.607a24.628,24.628,0,0,1-.54,5.119,23.979,23.979,0,0,1-23.533,18.939c-7.113.011-13.841-1.352-19.9-5.292a52.258,52.258,0,0,1-9.827-8.9q-9.017-9.848-18.092-19.645c-1.862-2.024-1.755-3.375.371-5.112a10.162,10.162,0,0,1,13.106.415q2.54,2.308,5,4.7a2.644,2.644,0,0,0,2.008.788q6.547-.046,13.092-.008a14.791,14.791,0,0,1,10.888,4.753c.124.128.247.259.369.389a.987.987,0,0,0,1.51.171c.567-.5.456-1.052-.021-1.592a17.068,17.068,0,0,0-6.31-4.518,16.975,16.975,0,0,0-6.577-1.32c-3.9,0-7.8-.021-11.7.018-.79.008-1.025-.2-1.023-1.01.025-13.592,0-27.184.028-40.776.007-3.77,2.477-6.332,5.879-6.239a5.6,5.6,0,0,1,5.52,5.674q.017,13.36,0,26.719c0,1.431.316,2.024,1.1,1.922,1.185-.153,1.008-1.1,1.008-1.912q.005-16.15,0-32.3a7.923,7.923,0,0,1,.681-3.544,5.925,5.925,0,0,1,6.719-3.392,6,6,0,0,1,4.9,5.846c.051,4.542.017,9.085.017,13.628q0,9.872,0,19.744a8.446,8.446,0,0,0,.01.858c.066.651.393,1.086,1.1,1.062a.987.987,0,0,0,.994-1.048c.026-.32.01-.644.01-.966q0-16.793.006-33.587a5.56,5.56,0,0,1,4.758-5.624,5.773,5.773,0,0,1,6.312,3.712,7.432,7.432,0,0,1,.339,2.536q-.007,16.525,0,33.05a8.2,8.2,0,0,0,.014.965.974.974,0,0,0,.966.964.992.992,0,0,0,1.1-.936,5.918,5.918,0,0,0,.027-.964q0-11,0-22a4.847,4.847,0,0,1,4.845-5.157c2.814-.017,4.842,2.116,4.845,5.15Q3295.36-411.885,3295.349-399.33Z" transform="translate(3893.86 16.84)" fill="#f6da99"/>
    <rect id="Rectangle_225" data-name="Rectangle 225" width="112" height="112" transform="translate(7097 -436)" fill="none"/>
  </g>
</svg>
