<svg xmlns="http://www.w3.org/2000/svg" width="112" height="112" viewBox="0 0 112 112">
  <g id="Group_282" data-name="Group 282" transform="translate(-6928 426)">
    <g id="Group_278" data-name="Group 278" transform="translate(6952 -405)">
      <path id="Path_48" data-name="Path 48" d="M2763.751-226.888c3.734,5.386,10.166,5.5,14.117,1.469.054.037.155.076.154.114-.041,4.427.319,8.863-.375,13.274-1.826,11.6-11.864,21.209-23.579,22.318-6.182.585-12.39.594-18.3-1.74-11.943-4.718-19.1-13.41-21.26-26.1-.554-3.259-.72-6.522.6-9.707a12.923,12.923,0,0,1,11.768-8.057c11.229-.027,22.459-.008,33.689,0,1.5,0,1.968.561,2.048,2.093a11.391,11.391,0,0,1-4.292,10.129,11.108,11.108,0,0,1-7.181,2.378c-5.078-.013-10.157,0-15.236,0-.25,0-.5,0-.751,0-.734-.008-1.448.118-1.465,1.018s.647,1.035,1.411,1.064a12.465,12.465,0,0,1,12.3,12.775c0,1.144-.015,2.289,0,3.433.011.753.259,1.4,1.151,1.353.84-.045.97-.694.958-1.4-.046-2.743.218-5.5-.72-8.179a14.929,14.929,0,0,0-5.547-7.435c-.157-.112-.417-.156-.391-.559,2.728,0,5.464-.014,8.2.005a13.653,13.653,0,0,0,4.434-.632A13.532,13.532,0,0,0,2763.751-226.888Z" transform="translate(-2714.098 258.607)" fill="#f6da99"/>
      <path id="Path_49" data-name="Path 49" d="M2810.5-330.005c0,2.216-.018,4.433.008,6.649.008.662-.153.932-.9.925q-6.381-.056-12.763,0c-.65,0-.856-.166-.852-.835.028-4.4-.026-8.795.027-13.191a7.26,7.26,0,0,1,7.311-7.17,7.233,7.233,0,0,1,7.164,7.3C2810.509-334.224,2810.5-332.114,2810.5-330.005Z" transform="translate(-2778.417 343.654)" fill="#f6da99"/>
      <path id="Path_50" data-name="Path 50" d="M2887.435-322.294a21.06,21.06,0,0,0-5.04-.229c-2.787-.035-5.575-.024-8.362,0-.629.006-.88-.149-.875-.832.028-4.324-.026-8.649.031-12.973a6.942,6.942,0,0,1,4.281-6.735,6.845,6.845,0,0,1,7.688,1.205,6.32,6.32,0,0,1,2.336,4.773c.063,4.788.022,9.578.018,14.367A2.406,2.406,0,0,1,2887.435-322.294Z" transform="translate(-2839.01 343.737)" fill="#f6da99"/>
      <path id="Path_51" data-name="Path 51" d="M2949.877-283.114c0-1.753-.047-3.507.009-5.258a6.6,6.6,0,0,1,6.479-6.421,6.557,6.557,0,0,1,6.792,6.208c.133,3.679.132,7.371,0,11.05a6.533,6.533,0,0,1-6.842,6.139,6.558,6.558,0,0,1-6.423-6.353c-.056-1.787-.01-3.577-.01-5.365Z" transform="translate(-2899.246 305.301)" fill="#f6da99"/>
      <path id="Path_52" data-name="Path 52" d="M2730.714-316.83c-.3-.3-.211-.6-.211-.875,0-5.611-.019-11.222.022-16.832a5.922,5.922,0,0,1,4.584-5.853,5.949,5.949,0,0,1,6.742,3.136,5.421,5.421,0,0,1,.609,2.469q-.011,6.915,0,13.83c0,.5.086.995-.727.939A15.467,15.467,0,0,0,2730.714-316.83Z" transform="translate(-2726.971 341.233)" fill="#f6da99"/>
    </g>
    <rect id="Rectangle_226" data-name="Rectangle 226" width="112" height="112" transform="translate(6928 -426)" fill="none"/>
  </g>
</svg>
